<?xml version="1.0" encoding="utf-8"?>
<!-- Generator: Adobe Illustrator 25.2.1, SVG Export Plug-In . SVG Version: 6.00 Build 0)  -->
<svg version="1.2" baseProfile="tiny" id="katman_1"
	 xmlns="http://www.w3.org/2000/svg" xmlns:xlink="http://www.w3.org/1999/xlink" x="0px" y="0px" viewBox="0 0 82.7 38.3"
	 overflow="visible" xml:space="preserve">
<g>
	<path fill="#FFFFFF" d="M33.2,8.4c0,0,2.2,0,4.8-0.1c0,0,0.3,3.1,0.8,6.7c0.3-2,0.6-4.6,0.8-7.3c0,0,2.6,0.1,5,0.2
		c0,0,0,5.3,0.6,13.6c0,0-1.8,0.1-3.5,0.2c0,0,0.1-4.2-0.1-10c-0.3,2.2-0.8,5.2-1,7.8c0,0-1.8,0-3.4-0.1c0,0-0.2-2.6-0.9-7
		c0,2.3,0,5.4,0.1,8.8c0,0-2.2-0.1-3.6-0.1C32.7,21.1,33,15.7,33.2,8.4L33.2,8.4z"/>
	<path fill="#FFFFFF" d="M45.5,19.1c0-2.3,1.7-3.4,4.4-3.3v-0.3c0-1.1-0.2-1.4-0.5-1.4c-0.3,0-0.5,0.4-0.5,1.3c0,0-1.2,0.1-3.1,0
		c0-2,1.1-3.6,3.8-3.6s3.6,1.5,3.6,3.9c0.1,2.8,0,5.9,0,5.9s-0.7,0-2.5,0c0,0,0.1-0.6,0.1-1.3c-0.5,1.1-1.4,1.4-2.5,1.4
		C46.7,21.7,45.5,20.7,45.5,19.1L45.5,19.1z M50,17.2c-1,0.1-1.2,0.7-1.2,1.4c0,0.4,0.2,0.8,0.6,0.8c0.4,0,0.7-0.3,0.7-1.8
		C50,17.4,50,17.2,50,17.2L50,17.2z"/>
	<path fill="#FFFFFF" d="M53.8,11.8c0,0,0.5,0,2.8,0c0,0-0.1,0.7-0.1,1.7c0.5-1.1,1.7-1.9,2.7-1.9c0,0-0.1,0.9-0.1,3.4
		c-1.4,0.2-1.9,1.1-1.9,2.5c0,1.6,0,4,0,4s-0.9,0-3.4,0C53.9,21.5,53.9,16.6,53.8,11.8L53.8,11.8z"/>
	<path fill="#FFFFFF" d="M63.7,18.7c-0.3,0.5-0.5,0.9-0.6,1.2c0,0.7,0,1.1,0,1.1c-2.3-0.1-3.4,0-3.4,0c0.1-8.8,0-12.6,0-12.6
		c2.4,0.1,3.4,0,3.4,0c0,3.2,0,5.3,0,7.2c0.8-2.5,1.2-3.9,1.2-3.9c2.1,0.1,3.7,0.2,3.7,0.2c-0.9,1.8-1.5,3.2-1.9,4
		c1.1,3.6,1.9,5.8,1.9,5.8c-2.5,0-3.6,0.1-3.6,0.1C64.1,20.5,63.8,19.5,63.7,18.7L63.7,18.7z"/>
	<path fill="#FFFFFF" d="M67.7,16.6c0-2.7,1.1-4.9,4.1-4.9c3.3,0,4.2,2.5,4,5.7c0,0-1.8,0-4.6,0c0.1,1.3,0.2,1.7,0.6,1.7
		c0.3,0,0.5-0.3,0.6-1.1c0,0,1.8,0,3.4,0.1c-0.3,2.2-1.8,3.4-4,3.4C68.6,21.6,67.7,19.3,67.7,16.6L67.7,16.6z M71.2,15.8
		c0.4,0,0.7,0,1.1,0c0-1.3-0.2-1.9-0.5-1.9C71.4,13.9,71.2,14.3,71.2,15.8L71.2,15.8z"/>
	<path fill="#FFFFFF" d="M76.1,12.1c0.3,0,0.6,0,0.9,0c0-1.5,0-2.6,0-2.6c2.4,0,3.3,0,3.3,0s0,1.1,0,2.6h1.5c0,2.4,0,2.9,0,2.9
		l-1.5,0c0,0.8,0,1.6,0,2.3c0,0.6,0.3,0.8,0.9,0.8c0.2,0,0.4,0,0.6-0.1c0.1,2,0.2,3,0.2,3c-0.6,0.2-1.2,0.2-1.9,0.2
		c-1.9,0-3.1-0.9-3.1-3.1c0-1.1,0-2.2,0-3.2h-0.9C76.1,12.7,76.1,12.1,76.1,12.1L76.1,12.1z"/>
	<path fill="#FFFFFF" d="M42.4,32.4L42.4,32.4c-1,0-1.6-0.2-2.1-0.7c-0.3,1.6-1.9,2.7-3.7,2.7c-2.2,0-3.9-1.7-3.9-4v-1.4h1.5v1.3
		c0,1.6,0.9,2.6,2.4,2.6c1.2,0,2.3-0.8,2.3-1.9c0-0.6-0.4-1-1-1c-0.1,0-0.2,0-0.3,0v-1.4c0,0,0.2,0,0.7,0c1.1,0,1.9,0.5,2.5,1.6
		c0.3,0.5,0.6,0.7,1.3,0.7h0.2L42.4,32.4L42.4,32.4z M36.4,36.8h-1.4v-1.4h1.4V36.8z M38.5,36.8h-1.4v-1.4h1.4L38.5,36.8z"/>
	<path fill="#FFFFFF" d="M44.6,32.4h-2.4v-1.6h2.4V32.4z"/>
	<path fill="#FFFFFF" d="M54.1,29.6c0,1.6-1,2.8-2.3,2.8h-5l0,0l0,0h-2.7v-1.6h1.4c0.5,0,0.8-0.3,0.8-1.1V27h1.5v2.6
		c0,0.4-0.1,0.8-0.2,1.2h1c0.5,0,0.8-0.4,0.8-1.1V27H51v2.6c0,0.4-0.1,0.8-0.2,1.2h1c0.5,0,0.8-0.4,0.8-1.1V27h1.5V29.6z M49.9,26.1
		h-1.4v-1.4h1.4V26.1z M50.9,24.1h-1.4v-1.4h1.4V24.1z M51.9,26.1h-1.4v-1.4h1.4V26.1z"/>
	<path fill="#FFFFFF" d="M58.2,31.3c0,1.1-0.3,1.9-0.8,2.4c-0.5,0.5-1.2,0.7-2.3,0.7V33c1,0,1.5-0.5,1.5-1.6V27h1.5L58.2,31.3
		L58.2,31.3z"/>
	<path fill="#FFFFFF" d="M62.6,32.4h-1.5c-1.2,0-1.9-0.7-1.9-2v-5.7h1.5v4.8c0,0.8,0.2,1.2,1.3,1.2h0.5L62.6,32.4z"/>
	<path fill="#FFFFFF" d="M64.8,32.4h-2.4v-1.6h2.4V32.4z"/>
	<path fill="#FFFFFF" d="M66.9,32.4h-2.4v-1.6h2.4V32.4z"/>
	<path fill="#FFFFFF" d="M69.1,32.4h-2.4v-1.6h2.4V32.4z"/>
	<path fill="#FFFFFF" d="M71.3,32.4h-2.4v-1.6h2.4V32.4z"/>
	<path fill="#FFFFFF" d="M73.5,32.4h-2.4v-1.6h2.4V32.4z"/>
	<path fill="#FFFFFF" d="M75.6,32.4h-2.4v-1.6h2.4V32.4z"/>
	<path fill="#FFFFFF" d="M81.9,30.7c0,1.6-1,2.7-2.5,2.7c-0.9,0-1.6-0.3-2.1-1h-2v-1.6h1.5c0-1.7,0.9-2.8,2.5-2.8
		S81.9,29.1,81.9,30.7L81.9,30.7z M80.4,30.7c0-0.9-0.3-1.4-1-1.4h-0.1c-0.6,0-0.9,0.6-0.9,1.3c0,0.8,0.4,1.4,1,1.4
		C80,32,80.4,31.5,80.4,30.7L80.4,30.7z"/>
</g>
<path fill="#FFFFFF" d="M28.2,35.6c0-0.1,0-0.3,0-0.4l-2.7-24.4c-0.1-0.7-0.7-1.3-1.4-1.3h-1.4c0-0.5,0-1-0.1-1.4
	c-0.8-4.4-4.9-7.2-9.3-6.5C10,2.2,7.4,4.8,6.8,8.1C6.8,8.6,6.7,9,6.7,9.5H5.3c-0.7,0-1.4,0.6-1.4,1.3L2.7,21.9L1.2,34.8v0.4
	c-0.1,0.8,0.5,1.5,1.3,1.6c0,0,0.1,0,0.1,0h24.2c0.6,0,1.2-0.4,1.4-1h0.1L28.2,35.6L28.2,35.6z M22.5,15c-1.1,1.5-2,2.5-2,2.5
	c-2.1-0.5-4.5-0.5-5.7,0.9c-0.4,0.5-0.5,0.9-0.3,1.1c0.3,0.3,0.8,0,2-1.6c0,0,0.6,0.5,2.1,1.7c-1.9,2.8-3.8,3.3-5.7,1.6
	c-1.6-1.4-1.6-3-0.2-4.7c1.3-1.5,3.4-2.1,5.6-1.7c-1.5-1.2-2.2-1.8-2.2-1.8c1.4-1.7,1.8-2.2,1.8-2.2C20.4,13.3,22.5,15,22.5,15
	L22.5,15z M10.3,8.1c0.8-2.4,3.4-3.8,5.9-3c1.4,0.5,2.5,1.6,3,3c0.1,0.5,0.2,0.9,0.2,1.4h-9.3C10.1,9,10.1,8.5,10.3,8.1L10.3,8.1z
	 M3.1,28.7c2.7-3.1,4.1-4.7,4.7-5.5c-0.9-0.3-1.3-0.4-1.3-0.4c0.8-1.6,1.2-2.6,1.2-2.6c1.9,0.6,3.6,1,3.6,1c0.4,0.4,0.7,0.7,1,1.2
	c-3.6,4.2-6.8,8.2-6.8,8.2C3.9,29.5,3.1,28.7,3.1,28.7L3.1,28.7z M16,29.7c-1.3,1.5-3.4,2.1-5.6,1.7c1.5,1.2,2.2,1.8,2.2,1.8
	c-1.4,1.7-1.8,2.2-1.8,2.2c-2.5-2.3-4.6-4.1-4.6-4.1c1.1-1.5,2-2.5,2-2.5c2.1,0.5,4.5,0.5,5.7-0.9c0.4-0.5,0.5-0.9,0.3-1.1
	c-0.3-0.3-0.8,0-2,1.6c0,0-0.6-0.5-2.1-1.7c1.9-2.8,3.8-3.3,5.7-1.6C17.4,26.4,17.4,28,16,29.7L16,29.7z M22.3,23.4
	C21.5,25,21.1,26,21.1,26c-1.9-0.6-3.6-1-3.6-1c-0.4-0.4-0.7-0.7-1-1.2c3.6-4.2,6.8-8.2,6.8-8.2c1.4,1.2,2.2,1.9,2.2,1.9
	c-2.6,3.1-4.1,4.7-4.7,5.5C21.8,23.3,22.2,23.4,22.3,23.4L22.3,23.4z"/>
<path fill="#D7DDDC" d="M10.3,8H6.9C6.8,8.4,6.7,8.9,6.7,9.4h3.4C10.1,8.9,10.1,8.4,10.3,8z"/>
<path fill="#D7DDDC" d="M19.4,9.4h3.4c0-0.5,0-1-0.1-1.4h-3.4C19.3,8.4,19.4,8.9,19.4,9.4L19.4,9.4z"/>
</svg>
